
<svg xmlns="http://www.w3.org/2000/svg" xmlns:xlink="http://www.w3.org/1999/xlink" viewBox="0 0 502.66 502.66">
<style>:root&gt;svg{display:none}:root&gt;svg:target{display:block}</style>
<svg xmlns="http://www.w3.org/2000/svg" viewBox="0 0 22 16" id="apply"><path d="M7.938 15.5L.813 8.375l1.78-1.781 5.345 5.343L19.405.47l1.782 1.781L7.938 15.5z"/></svg>
<svg xmlns="http://www.w3.org/2000/svg" viewBox="0 0 56 22" id="arrow_back"><path d="M56 9.387v2.476H4.906l7.601 7.6-1.767 1.768L.133 10.625 10.74.018l1.767 1.768-7.601 7.601H56z"/></svg>
<svg xmlns="http://www.w3.org/2000/svg" viewBox="0 0 22 22" id="arrow_down"><path d="M10.14.122h2.474v16.97l7.601-7.6 1.768 1.767-10.606 10.607L.77 11.259 2.538 9.49l7.601 7.602V.122z"/></svg>
<svg xmlns="http://www.w3.org/2000/svg" viewBox="0 0 56 22" id="arrow_long_right"><path d="M0 12.613v-2.476h51.094l-7.601-7.6L45.26.768l10.607 10.606L45.26 21.982l-1.767-1.768 7.601-7.601H0z"/></svg>
<svg xmlns="http://www.w3.org/2000/svg" viewBox="0 0 16 12" id="arrow_right"><path d="M10 12l-1.4-1.45L12.15 7H0V5h12.15L8.6 1.45 10 0l6 6-6 6z"/></svg>
<svg xmlns="http://www.w3.org/2000/svg" viewBox="0 0 17 17" id="arrow_up_right"><path d="M2 16.5L.25 14.75l12-12H1.5V.25h15v15H14V4.5l-12 12z"/></svg>
<svg xmlns="http://www.w3.org/2000/svg" viewBox="0 0 30 30" id="close"><path d="M7.332 22.666L22.417 7.581M7.332 7.334l15.085 15.085"/></svg>
<svg xmlns="http://www.w3.org/2000/svg" viewBox="0 0 40 40" id="extend"><path fill-rule="evenodd" clip-rule="evenodd" d="M20.952 10.47a.952.952 0 01.958-.947l7.619.042a.952.952 0 01.947.953v7.577a.952.952 0 01-1.905 0v-6.63l-6.672-.037a.952.952 0 01-.947-.957zM10.476 20.953c.526 0 .952.426.952.952v6.71h6.667a.952.952 0 110 1.906h-7.62a.952.952 0 01-.952-.953v-7.663c0-.526.427-.952.953-.952z"/></svg>
<svg xmlns="http://www.w3.org/2000/svg" viewBox="0 0 21 20" id="filter"><path d="M18.12 5.713H7.646m-1.905 0H2.883m15.238 9.524H7.645m-1.905 0H2.883m10.476-4.762H2.883m15.238 0h-2.857M6.692 3.81a.952.952 0 01.953.952v1.905a.952.952 0 11-1.905 0V4.76a.952.952 0 01.952-.952zm0 9.523a.952.952 0 01.953.953v1.904a.952.952 0 11-1.905 0v-1.904a.953.953 0 01.952-.953zm7.62-4.762a.952.952 0 01.952.953v1.905a.953.953 0 01-1.905 0V9.523a.952.952 0 01.952-.953z"/></svg>
<svg xmlns="http://www.w3.org/2000/svg" viewBox="0 0 45 45" id="flat_1"><path d="M.5.5h44v44H.5z"/><path d="M12.488 13.36v18.815H9.984V16.003l-3.909 2.644-1.153-1.688 5.344-3.6h2.222zm12.059 6.474l-2.48 4.084 2.869 4.741h-1.064l-2.581-4.303h-1.182v4.303h-.945v-8.825h.945v3.763h1.198l2.262-3.763h.979zm7.598 0l-2.481 4.084 2.869 4.741h-1.064l-2.581-4.303h-1.182v4.303h-.945v-8.825h.945v3.763h1.198l2.262-3.763h.979zm6.027 4.033c.642.067 1.137.281 1.485.641.349.36.523.866.523 1.519 0 .877-.292 1.535-.877 1.974-.585.439-1.373.658-2.363.658h-2.58v-8.74c1.035-.18 1.856-.27 2.463-.27.923 0 1.637.207 2.143.623.518.417.777.98.777 1.688 0 1.035-.523 1.67-1.57 1.907zm-1.333-3.443c-.45 0-.962.04-1.535.119v3.037h1.822c.529 0 .94-.13 1.232-.388.292-.27.439-.67.439-1.198 0-.506-.163-.895-.49-1.165-.326-.27-.815-.405-1.468-.405zm.084 7.46c1.52 0 2.279-.62 2.279-1.857 0-.596-.163-1.03-.49-1.3-.326-.27-.821-.404-1.485-.404h-1.923v3.56h1.62z"/><path d="M.5.5h44v44H.5z"/></svg>
<svg xmlns="http://www.w3.org/2000/svg" viewBox="0 0 45 45" id="flat_2"><path d="M.5.5h44v44H.5z"/><path d="M10.181 12.656c1.069 0 1.988.225 2.757.675a4.382 4.382 0 011.8 1.8c.412.75.618 1.603.618 2.56a8.068 8.068 0 01-.675 3.262c-.431 1.013-1.134 2.147-2.11 3.403-.974 1.256-2.474 3.038-4.5 5.344h7.707l-.31 2.081H5.289v-1.968c2.175-2.513 3.759-4.416 4.753-5.71 1.012-1.294 1.715-2.4 2.109-3.319a7.54 7.54 0 00.59-2.953c0-.994-.252-1.762-.759-2.306-.487-.544-1.153-.816-1.997-.816-.712 0-1.33.16-1.856.479-.525.318-1.069.824-1.631 1.518l-1.575-1.21c1.369-1.893 3.122-2.84 5.26-2.84zM24.8 19.44l-2.48 4.084 2.869 4.742h-1.063l-2.582-4.303h-1.181v4.303h-.945V19.44h.945v3.763h1.198l2.26-3.763h.98zm7.598 0l-2.481 4.084 2.869 4.742h-1.063l-2.582-4.303H27.96v4.303h-.945V19.44h.944v3.763h1.199l2.26-3.763h.98zm6.027 4.033c.642.068 1.137.281 1.485.641.35.36.524.867.524 1.52 0 .877-.293 1.535-.878 1.974-.585.438-1.372.658-2.362.658h-2.582v-8.742c1.035-.18 1.856-.27 2.463-.27.923 0 1.637.208 2.143.625.518.416.777.979.777 1.687 0 1.035-.523 1.67-1.57 1.907zm-1.333-3.442c-.45 0-.962.039-1.535.118v3.037h1.822c.529 0 .94-.13 1.232-.388.293-.27.439-.67.439-1.198 0-.506-.163-.894-.49-1.164-.326-.27-.815-.405-1.468-.405zm.085 7.458c1.518 0 2.278-.618 2.278-1.856 0-.596-.163-1.03-.49-1.3-.326-.27-.82-.404-1.485-.404h-1.923v3.56h1.62z"/><path d="M.5.5h44v44H.5z"/></svg>
<svg xmlns="http://www.w3.org/2000/svg" viewBox="0 0 45 45" id="flat_3"><path d="M.5.5h44v44H.5z"/><path d="M10.434 12.656c1.032 0 1.932.216 2.7.647a4.33 4.33 0 011.772 1.716c.413.712.619 1.5.619 2.362 0 1.2-.31 2.175-.928 2.925-.619.732-1.5 1.228-2.644 1.49 1.238.113 2.231.563 2.981 1.35.75.788 1.125 1.885 1.125 3.291 0 1.07-.243 2.035-.73 2.897-.47.863-1.154 1.547-2.054 2.053-.881.507-1.912.76-3.094.76-1.087 0-2.062-.206-2.925-.619-.844-.431-1.622-1.078-2.334-1.94l1.519-1.294c.58.637 1.153 1.106 1.715 1.406a4.396 4.396 0 001.94.422c1.032 0 1.848-.328 2.448-.985.618-.675.928-1.593.928-2.756 0-1.237-.31-2.128-.928-2.672-.6-.562-1.472-.843-2.616-.843H8.747l.31-1.885h.787c.937 0 1.706-.29 2.306-.872.619-.58.928-1.415.928-2.503 0-.937-.262-1.669-.787-2.194-.507-.525-1.21-.787-2.11-.787a4.27 4.27 0 00-1.828.394c-.544.262-1.097.675-1.66 1.237l-1.321-1.35c1.462-1.5 3.15-2.25 5.062-2.25zm14.563 6.784l-2.48 4.084 2.869 4.742h-1.063l-2.582-4.303h-1.182v4.303h-.945V19.44h.945v3.763h1.198l2.262-3.763h.979zm7.597 0l-2.48 4.084 2.869 4.742H31.92l-2.582-4.303h-1.182v4.303h-.945V19.44h.945v3.763h1.199l2.26-3.763h.98zm6.028 4.033c.642.068 1.136.281 1.485.641.349.36.523.867.523 1.52 0 .877-.292 1.535-.877 1.974-.585.438-1.373.658-2.363.658h-2.58v-8.742c1.035-.18 1.856-.27 2.463-.27.923 0 1.637.208 2.143.625.518.416.777.979.777 1.687 0 1.035-.523 1.67-1.57 1.907zm-1.333-3.442c-.45 0-.962.039-1.535.118v3.037h1.822c.529 0 .94-.13 1.232-.388.292-.27.439-.67.439-1.198 0-.506-.163-.894-.49-1.164-.326-.27-.815-.405-1.468-.405zm.084 7.458c1.52 0 2.279-.618 2.279-1.856 0-.596-.163-1.03-.49-1.3-.326-.27-.821-.404-1.485-.404h-1.923v3.56h1.62z"/><path d="M.5.5h44v44H.5z"/></svg>
<svg xmlns="http://www.w3.org/2000/svg" viewBox="0 0 502.664 502.664" id="icon"><path d="M153.821 358.226L0 274.337v-46.463l153.821-83.414v54.574L46.636 250.523l107.185 53.431v54.272zm26.273 29.358L282.103 115.08h32.227L212.084 387.584h-31.99zm168.749-29.358v-54.272l107.164-52.999-107.164-52.59v-53.927l153.821 83.522v46.183l-153.821 84.083z"/></svg>
<svg xmlns="http://www.w3.org/2000/svg" viewBox="0 0 23 23" id="list"><path d="M20.688 12.188H6.938a.687.687 0 110-1.376h13.75a.687.687 0 110 1.376zM3.5 10.124a1.375 1.375 0 100 2.75 1.375 1.375 0 000-2.75zm17.875-4.813a.687.687 0 00-.688-.687H6.938a.687.687 0 100 1.375h13.75a.687.687 0 00.688-.688zm-16.5 0a1.375 1.375 0 10-2.75 0 1.375 1.375 0 002.75 0zm16.5 12.375a.687.687 0 00-.688-.687H6.938a.687.687 0 100 1.375h13.75a.687.687 0 00.688-.688zm-16.5 0a1.375 1.375 0 10-2.75 0 1.375 1.375 0 002.75 0z"/></svg>
<svg xmlns="http://www.w3.org/2000/svg" viewBox="0 0 23 23" id="plan"><g clip-path="url(#oa)"><path d="M22.292 1.417H1.208a.459.459 0 00-.458.458v11.917c0 .253.205.458.458.458h7.334A.459.459 0 009 13.792v-1.834a.458.458 0 00-.917 0v1.375H1.667v-11h6.416v.23a.459.459 0 00.917 0v-.23h12.833v5.5h-8.708a.458.458 0 00-.458.459v1.833a.458.458 0 00.916 0V8.75h8.25v7.333h-5.958a.459.459 0 00-.458.459v4.125H1.667v-1.375a.459.459 0 00-.917 0v1.833c0 .253.205.458.458.458h14.667a.458.458 0 00.458-.458V17h5.959a.459.459 0 00.458-.458V1.875a.458.458 0 00-.458-.458z"/><path d="M8.542 6.183A.458.458 0 009 5.725V4.671a.459.459 0 00-.916 0v1.054c0 .254.205.458.458.458zm-.917 1.65a.459.459 0 000 .917h.916A.459.459 0 009 8.292v-.459a.459.459 0 00-.917 0h-.458zm-2.75.001a.459.459 0 000 .916h.917a.459.459 0 000-.917h-.917zm-2.75.916h.917a.459.459 0 000-.917h-.917a.459.459 0 000 .917z"/></g><defs><clipPath id="oa"><path transform="translate(.75 .5)" d="M0 0h22v22H0z"/></clipPath></defs></svg>
<svg xmlns="http://www.w3.org/2000/svg" viewBox="0 0 40 40" id="reduce"><path fill-rule="evenodd" clip-rule="evenodd" d="M21.904 9.523c.526 0 .953.427.953.953v6.703l6.661-.037a.952.952 0 01.01 1.905l-7.618.042a.952.952 0 01-.958-.952v-7.661c0-.526.426-.953.952-.953zM9.524 21.9a.952.952 0 01.957-.947l7.62.044a.952.952 0 01.946.952v7.62a.952.952 0 11-1.905 0v-6.673l-6.672-.038a.952.952 0 01-.947-.958z"/></svg>
<svg xmlns="http://www.w3.org/2000/svg" viewBox="0 0 16 27" id="slider_arrow"><path d="M2.412 27L0 24.604 11.176 13.5 0 2.396 2.412 0 16 13.5 2.412 27z"/></svg>
<svg xmlns="http://www.w3.org/2000/svg" viewBox="0 0 40 40" id="zoom-in"><path d="M31.872 21.873h-10v10H18.54v-10h-10V18.54h10v-10h3.333v10h10v3.333z"/><rect x=".5" y=".5" width="39" height="39" rx="19.5"/></svg>
<svg xmlns="http://www.w3.org/2000/svg" viewBox="0 0 40 40" id="zoom-out"><path d="M31.872 21.76H8.54v-3.333h23.333v3.333z"/><rect x=".5" y=".5" width="39" height="39" rx="19.5"/></svg>
<svg xmlns="http://www.w3.org/2000/svg" viewBox="0 0 40 40" id="flat-design">
<path d="M7.58333 36.7909C7.58333 36.9677 7.5131 37.1373 7.38807 37.2623C7.26305 37.3874 7.09348 37.4576 6.91667 37.4576H0.666667C0.489856 37.4576 0.320286 37.3874 0.195262 37.2623C0.0702379 37.1373 0 36.9677 0 36.7909C0 36.6141 0.0702379 36.4446 0.195262 36.3195C0.320286 36.1945 0.489856 36.1243 0.666667 36.1243H6.91667C7.09348 36.1243 7.26305 36.1945 7.38807 36.3195C7.5131 36.4446 7.58333 36.6141 7.58333 36.7909ZM15.5 7.37427C18.0732 7.37427 20.1667 9.46777 20.1667 12.0409V13.2076C20.1667 13.3844 20.0964 13.554 19.9714 13.679C19.8464 13.804 19.6768 13.8743 19.5 13.8743H11.5C11.3232 13.8743 11.1536 13.804 11.0286 13.679C10.9036 13.554 10.8333 13.3844 10.8333 13.2076V12.0409C10.8333 9.46777 12.9268 7.37427 15.5 7.37427ZM12.1667 12.0409V12.5409H18.8333V12.0409C18.8333 10.2029 17.338 8.7076 15.5 8.7076C13.662 8.7076 12.1667 10.2029 12.1667 12.0409ZM5.54167 34.7909C5.62929 34.7909 5.71606 34.7737 5.797 34.7401C5.87794 34.7065 5.95148 34.6573 6.0134 34.5953C6.07531 34.5333 6.1244 34.4597 6.15785 34.3788C6.1913 34.2978 6.20845 34.211 6.20833 34.1234L6.17333 8.0671C6.17025 5.7506 8.04392 3.87427 10.3606 3.87427H10.6462C11.9828 3.87427 13.2079 4.4901 14.0073 5.56385C14.114 5.70233 14.271 5.79332 14.4442 5.81721C14.6174 5.84109 14.7931 5.79595 14.9334 5.69153C15.0737 5.5871 15.1673 5.43175 15.1941 5.25894C15.2209 5.08613 15.1788 4.90971 15.0768 4.76768C14.0388 3.37343 12.3824 2.54102 10.6462 2.54102H10.3606C7.3065 2.54102 4.83592 5.0146 4.84 8.06893L4.875 34.1252C4.87524 34.3018 4.94559 34.4712 5.07059 34.596C5.19558 34.7208 5.36501 34.7909 5.54167 34.7909ZM37 25.7076V21.3607C37 19.3923 35.3986 17.7909 33.4303 17.7909H15.2364C13.2681 17.7909 11.6667 19.3923 11.6667 21.3607V22.9576C11.6667 23.1344 11.7369 23.304 11.8619 23.429C11.987 23.554 12.1565 23.6243 12.3333 23.6243C12.5101 23.6243 12.6797 23.554 12.8047 23.429C12.9298 23.304 13 23.1344 13 22.9576V21.3607C13 20.1275 14.0033 19.1243 15.2364 19.1243H23.75V26.6243C23.75 26.8011 23.8202 26.9706 23.9453 27.0957C24.0703 27.2207 24.2399 27.2909 24.4167 27.2909C24.5935 27.2909 24.763 27.2207 24.8881 27.0957C25.0131 26.9706 25.0833 26.8011 25.0833 26.6243V19.1243H33.4303C34.6634 19.1243 35.6667 20.1275 35.6667 21.3607V25.7253C34.1696 25.8866 33 27.1574 33 28.6968V29.2909C33 29.4677 33.0702 29.6373 33.1953 29.7623C33.3203 29.8874 33.4899 29.9576 33.6667 29.9576C33.8435 29.9576 34.013 29.8874 34.1381 29.7623C34.2631 29.6373 34.3333 29.4677 34.3333 29.2909V28.6968C34.3333 27.7838 35.0761 27.0409 35.9891 27.0409H37.0109C37.9239 27.0409 38.6667 27.7838 38.6667 28.6968V34.4685C38.6667 35.3815 37.9239 36.1243 37.0109 36.1243H34.3333C34.3333 31.761 34.3366 32.0295 34.3276 31.9577C34.3784 31.5506 34.0601 31.2077 33.6667 31.2077H18.75C18.5732 31.2077 18.4036 31.2779 18.2786 31.4029C18.1536 31.528 18.0833 31.6975 18.0833 31.8743C18.0833 32.0512 18.1536 32.2207 18.2786 32.3458C18.4036 32.4708 18.5732 32.541 18.75 32.541H33V36.791C33 36.9678 33.0702 37.1374 33.1953 37.2624C33.3203 37.3874 33.4899 37.4577 33.6667 37.4577H37.0109C38.6591 37.4577 40 36.1168 40 34.4685V28.6968C40 27.0701 38.6851 25.7076 37 25.7076ZM30.25 36.1243H11.8225C10.9095 36.1243 10.1667 35.3814 10.1667 34.4684V28.6968C10.1667 27.7838 10.9095 27.0409 11.8225 27.0409H12.8443C13.7573 27.0409 14.5001 27.7838 14.5001 28.6968V32.4576C14.5001 32.6344 14.5703 32.804 14.6953 32.929C14.8204 33.054 14.9899 33.1243 15.1668 33.1243C15.3436 33.1243 15.5131 33.054 15.6382 32.929C15.7632 32.804 15.8334 32.6344 15.8334 32.4576V28.6968C15.8334 27.0485 14.4925 25.7076 12.8443 25.7076H11.8225C10.1742 25.7076 8.83333 27.0485 8.83333 28.6968V34.4685C8.83333 36.1168 10.1742 37.4577 11.8225 37.4577H30.25C30.4268 37.4577 30.5964 37.3874 30.7214 37.2624C30.8465 37.1374 30.9167 36.9678 30.9167 36.791C30.9167 36.6142 30.8465 36.4446 30.7214 36.3195C30.5964 36.1945 30.4268 36.1243 30.25 36.1243Z"/>
</svg>
</svg>
